<?xml version="1.0" encoding="UTF-8" standalone="no"?>
<svg
   xmlns:dc="http://purl.org/dc/elements/1.1/"
   xmlns:cc="http://creativecommons.org/ns#"
   xmlns:rdf="http://www.w3.org/1999/02/22-rdf-syntax-ns#"
   xmlns:svg="http://www.w3.org/2000/svg"
   xmlns="http://www.w3.org/2000/svg"
   xmlns:sodipodi="http://sodipodi.sourceforge.net/DTD/sodipodi-0.dtd"
   xmlns:inkscape="http://www.inkscape.org/namespaces/inkscape"
   version="1.1"
   id="Layer_1"
   x="0px"
   y="0px"
   viewBox="0 0 128 128"
   xml:space="preserve"
   sodipodi:docname="timeline_project.svg"
   width="128"
   height="128"
   inkscape:version="0.92.4 (5da689c313, 2019-01-14)"
   inkscape:export-filename="C:\Users\YSD\Downloads\timeline_project.png"
   inkscape:export-xdpi="96"
   inkscape:export-ydpi="96"><metadata
     id="metadata852"><rdf:RDF><cc:Work
         rdf:about=""><dc:format>image/svg+xml</dc:format><dc:type
           rdf:resource="http://purl.org/dc/dcmitype/StillImage" /><dc:title></dc:title></cc:Work></rdf:RDF></metadata><defs
     id="defs850" /><sodipodi:namedview
     pagecolor="#ffffff"
     bordercolor="#666666"
     borderopacity="1"
     objecttolerance="10"
     gridtolerance="10"
     guidetolerance="10"
     inkscape:pageopacity="0"
     inkscape:pageshadow="2"
     inkscape:window-width="1278"
     inkscape:window-height="1360"
     id="namedview848"
     showgrid="true"
     inkscape:snap-object-midpoints="true"
     inkscape:object-nodes="false"
     inkscape:snap-bbox="false"
     inkscape:bbox-nodes="true"
     inkscape:zoom="4.8942346"
     inkscape:cx="68.303432"
     inkscape:cy="36.266462"
     inkscape:window-x="1273"
     inkscape:window-y="0"
     inkscape:window-maximized="0"
     inkscape:current-layer="Layer_1"><inkscape:grid
       type="xygrid"
       id="grid1397"
       empspacing="4" /></sodipodi:namedview><style
     type="text/css"
     id="style841">.st0{fill-rule:evenodd;clip-rule:evenodd;}</style><path
     style="clip-rule:evenodd;fill-rule:evenodd;stroke:#ffffff;stroke-width:0.25;stroke-miterlimit:4;stroke-dasharray:none;stroke-opacity:1;stroke-linejoin:round;stroke-linecap:round;fill:#59b2d5;fill-opacity:1"
     inkscape:connector-curvature="0"
     id="path843"
     d="m 54.41886,94.29487 c 2.96112,8.71788 15.345567,9.04012 18.132504,0 3.27465,2.95241 12.976672,3.53592 16.58227,5.55645 1.140903,0.63577 2.168585,1.44573 3.004666,2.54308 0.557387,0.73157 1.297667,2.0902 1.863764,3.6056 H 32.96816 c 0.566096,-1.5154 1.306376,-2.87403 1.863763,-3.6056 0.827372,-1.09735 1.863764,-1.90731 3.004666,-2.54308 3.605599,-2.02053 13.298911,-2.61275 16.582271,-5.55645 z m 45.58382,-32.119442 h -6.906371 c -1.05381,0 -1.968273,0.374494 -2.717262,1.114774 -0.74899,0.748989 -1.114775,1.654744 -1.114775,2.717263 v 6.732193 c 0,1.071229 0.374495,1.976983 1.114775,2.717263 0.748989,0.748989 1.654743,1.114774 2.717262,1.114774 h 2.96112 c -0.217729,0.844791 -0.487714,1.646035 -0.827371,2.403733 -0.330949,0.757698 -0.897046,1.489269 -1.680871,2.186003 1.497978,-0.391913 2.830482,-0.975428 4.00622,-1.741835 1.16703,-0.766408 2.186004,-1.724417 3.022083,-2.847901 h 2.54308 c 1.06252,0 1.96827,-0.383203 2.71726,-1.114774 0.7577,-0.748989 1.11478,-1.654743 1.11478,-2.717263 v -6.732193 c 0,-1.062519 -0.3745,-1.968274 -1.11478,-2.717263 -0.74028,-0.748989 -1.65474,-1.114774 -2.71726,-1.114774 z m 17.50545,7.733748 v 6.732193 c 0,0.609642 -0.10451,1.184448 -0.33095,1.715708 -0.21773,0.531259 -0.53997,1.018973 -0.98414,1.454432 -0.18289,0.182893 -0.39191,0.357076 -0.59222,0.496423 -0.20902,0.156765 -0.43546,0.278694 -0.65319,0.391913 -0.009,0.0087 -0.0261,0.0087 -0.0348,0.01742 -0.2874,0.139347 -0.58351,0.226439 -0.88833,0.296112 -0.32224,0.06967 -0.65319,0.10451 -0.99285,0.10451 h -2.11633 c 0.0435,0.130638 0.0871,0.269985 0.13935,0.409331 0.12193,0.374495 0.27869,0.74028 0.43546,1.114775 v 0.0087 c 0.14805,0.339658 0.34836,0.661898 0.59222,0.984137 0.25257,0.330949 0.55739,0.65319 0.92317,0.98414 0.26128,0.22644 0.28741,0.62706 0.0523,0.88833 -0.15677,0.1829 -0.40933,0.25257 -0.62706,0.20031 -0.77512,-0.20902 -1.52411,-0.46158 -2.22084,-0.7664 -0.69674,-0.30483 -1.35863,-0.6619 -1.97699,-1.071232 -0.60964,-0.400622 -1.18444,-0.853499 -1.7157,-1.358632 -0.45288,-0.426749 -0.87092,-0.888336 -1.27154,-1.384759 h -2.22084 c -0.41804,0 -0.81867,-0.05226 -1.20187,-0.148056 -0.3832,-0.10451 -0.74899,-0.261275 -1.09736,-0.470295 -0.29611,-0.174184 -0.39191,-0.566097 -0.20902,-0.862208 0.17419,-0.296112 0.5661,-0.391913 0.86221,-0.209021 0.23515,0.139347 0.48772,0.252566 0.77512,0.330949 0.26998,0.07838 0.5661,0.113219 0.87092,0.113219 h 2.53437 c 0.1916,0 0.3832,0.08709 0.50513,0.252566 0.40062,0.53126 0.83608,1.027683 1.32379,1.471851 0.4703,0.452877 0.99285,0.853499 1.55024,1.219285 0.53126,0.348367 1.09735,0.661897 1.69829,0.931881 -0.12193,-0.200311 -0.20902,-0.391912 -0.30482,-0.583514 -0.16548,-0.391913 -0.33095,-0.792535 -0.4703,-1.210576 -0.13935,-0.400622 -0.26128,-0.809953 -0.37449,-1.227994 -0.0261,-0.06967 -0.0348,-0.148055 -0.0348,-0.217729 0,-0.348367 0.27869,-0.63577 0.63577,-0.63577 h 2.95241 c 0.25257,0 0.48771,-0.02613 0.72286,-0.07838 0.21773,-0.05225 0.42675,-0.121929 0.61835,-0.209021 0.009,-0.0087 0.0174,-0.0087 0.0261,-0.01742 0.15676,-0.07838 0.32224,-0.165474 0.46159,-0.269984 0.15676,-0.11322 0.29611,-0.226439 0.43545,-0.374495 0.31354,-0.31353 0.54868,-0.661897 0.70545,-1.036392 0.15676,-0.374494 0.22644,-0.783826 0.22644,-1.236703 v -6.732193 c 0,-0.452877 -0.0784,-0.862208 -0.22644,-1.236703 -0.14806,-0.374494 -0.39191,-0.722861 -0.70545,-1.036392 -0.31353,-0.31353 -0.66189,-0.548678 -1.03639,-0.705443 -0.37449,-0.156765 -0.78382,-0.226438 -1.2367,-0.226438 h -3.1353 c -0.34837,0 -0.63577,-0.278694 -0.63577,-0.63577 0,-0.348367 0.27869,-0.63577 0.63577,-0.63577 h 3.1353 c 0.60964,0 1.17574,0.113219 1.707,0.330949 0.53126,0.217729 1.01026,0.539969 1.44572,0.975427 0.43546,0.435459 0.76641,0.914464 0.97543,1.454433 0.22644,0.531259 0.33095,1.097356 0.33095,1.706998 h 0.0174 z M 23.527413,57.246034 c -0.06096,0 -0.113219,-0.0087 -0.165474,-0.02613 -0.269985,0 -0.505132,-0.21773 -0.505132,-0.505132 v -0.992846 h -4.885848 v 0.992846 c 0,0.252566 -0.200311,0.479004 -0.452877,0.496423 -0.05225,0.01742 -0.113219,0.02613 -0.174184,0.02613 h -1.846345 v 2.055366 h 9.641058 v -2.055366 h -1.628616 z m -8.500155,12.36703 c 0.548678,0 0.992846,0.444168 0.992846,0.992846 0,0.548678 -0.444168,0.992846 -0.992846,0.992846 -0.548678,0 -0.992846,-0.444168 -0.992846,-0.992846 -0.0087,-0.548678 0.435458,-0.992846 0.992846,-0.992846 z m -1.149612,-2.447278 c -0.139346,-0.209021 -0.07838,-0.479005 0.121929,-0.618352 0.20902,-0.139347 0.479005,-0.07838 0.618351,0.121929 l 0.243857,0.357076 0.966719,-1.175739 c 0.156765,-0.191602 0.435459,-0.217729 0.62706,-0.06096 0.191602,0.156765 0.21773,0.435459 0.06096,0.62706 l -1.332504,1.628616 c -0.02613,0.03484 -0.06096,0.06967 -0.10451,0.0958 -0.200311,0.139347 -0.479005,0.07838 -0.618352,-0.121928 z m 0,-3.440125 c -0.139346,-0.20902 -0.07838,-0.479005 0.121929,-0.618351 0.20902,-0.139347 0.479005,-0.08709 0.618351,0.121928 l 0.243857,0.357076 0.966719,-1.175738 c 0.156765,-0.191602 0.435459,-0.21773 0.62706,-0.06096 0.191602,0.156766 0.21773,0.435459 0.06096,0.627061 l -1.332504,1.628616 c -0.02613,0.03484 -0.06096,0.06967 -0.10451,0.10451 -0.200311,0.139347 -0.479005,0.07838 -0.618352,-0.121928 z m 10.346501,15.249767 c -0.08709,0.07838 -0.217729,0.130638 -0.339658,0.130638 -0.02613,0 -0.05225,0 -0.07838,-0.0087 H 11.604552 c -0.304822,0 -0.583515,-0.121928 -0.792535,-0.330948 -0.200312,-0.200311 -0.32224,-0.470296 -0.32224,-0.783826 V 58.66563 c 0,-0.31353 0.121928,-0.583515 0.330949,-0.792535 0.200311,-0.200311 0.479004,-0.330949 0.792535,-0.330949 h 2.900155 v -0.548678 c 0,-0.20902 0.07838,-0.391913 0.226439,-0.531259 0.130637,-0.130638 0.322239,-0.226439 0.53126,-0.226439 h 1.715707 v -0.688025 c 0,-0.226438 0.0958,-0.435459 0.252566,-0.583515 0.148056,-0.148056 0.357076,-0.243857 0.583515,-0.243857 h 5.234215 c 0.226438,0 0.435458,0.0958 0.583514,0.243857 0.148056,0.148056 0.243857,0.357077 0.243857,0.583515 v 0.688025 h 1.550234 c 0.200311,0 0.391913,0.08709 0.531259,0.226439 0.130638,0.130637 0.226439,0.322239 0.226439,0.531259 v 0.548678 h 2.900156 c 0.31353,0 0.583514,0.121929 0.792535,0.330949 0.200311,0.20902 0.330948,0.479005 0.330948,0.792535 v 13.934681 c 0.04355,0.200311 0,0.357077 -0.148056,0.505132 l -5.765474,5.835148 c -0.01742,0.01742 -0.02613,0.02613 -0.04355,0.03484 z m -0.84479,-0.879627 c 0,-6.671228 -0.84479,-5.878693 5.800311,-5.878693 V 58.66563 c 0,-0.02613 -0.0087,-0.06096 -0.03484,-0.07838 -0.01742,-0.01742 -0.04355,-0.03484 -0.07838,-0.03484 h -2.900155 v 1.010264 c 0,0.20902 -0.07838,0.391913 -0.217729,0.53126 -0.130638,0.130637 -0.322239,0.217729 -0.53126,0.217729 H 15.253696 c -0.200311,0 -0.400622,-0.08709 -0.53126,-0.217729 -0.01742,-0.01742 -0.02613,-0.03484 -0.04354,-0.05226 -0.104511,-0.130638 -0.174184,-0.296112 -0.174184,-0.479005 v -1.010264 h -2.908865 c -0.02613,0 -0.06096,0.0087 -0.07838,0.03484 -0.01742,0.01742 -0.03484,0.05226 -0.03484,0.07838 v 19.316952 c 0,0.03484 0.0087,0.06096 0.03484,0.07838 0.01742,0.01742 0.04355,0.03484 0.07838,0.03484 h 11.78351 z m -4.711664,-7.141524 c -0.269984,0 -0.505132,-0.226438 -0.505132,-0.505132 0,-0.269985 0.217729,-0.505132 0.505132,-0.505132 h 4.790047 c 0.269984,0 0.505132,0.217729 0.505132,0.505132 0,0.269984 -0.217729,0.505132 -0.505132,0.505132 z m 0,-7.202488 c -0.269984,0 -0.505132,-0.21773 -0.505132,-0.505133 0,-0.269984 0.217729,-0.505132 0.505132,-0.505132 h 7.376672 c 0.278694,0 0.505132,0.226439 0.505132,0.505132 0,0.269985 -0.217729,0.505133 -0.505132,0.505133 z m 0,3.605598 c -0.269984,0 -0.505132,-0.217729 -0.505132,-0.505132 0,-0.278693 0.217729,-0.505132 0.505132,-0.505132 h 7.376672 c 0.278694,0 0.505132,0.217729 0.505132,0.505132 0,0.269985 -0.217729,0.505132 -0.505132,0.505132 z M 72.220415,25.623017 C 69.982157,23.384759 66.890399,22 63.476403,22 c -3.413997,0 -6.505755,1.384759 -8.744013,3.623017 -2.238258,2.238258 -3.623017,5.330016 -3.623017,8.744013 0,3.413996 1.384759,6.505754 3.623017,8.744012 2.238258,2.238258 5.330016,3.623017 8.744013,3.623017 3.413996,0 6.505754,-1.384759 8.744012,-3.623017 2.238258,-2.238258 3.623017,-5.330016 3.623017,-8.744012 0,-3.413997 -1.384759,-6.505755 -3.623017,-8.744013 z m -8.953033,2.734681 h -1.567651 c -0.01742,0 -0.04355,0.0087 -0.05226,0.02613 -0.01742,0.01742 -0.02613,0.03484 -0.02613,0.05226 v 8.204043 h 7.672784 c 0.01742,0 0.04355,-0.0087 0.05226,-0.02613 0.01742,-0.01742 0.02613,-0.03484 0.02613,-0.05226 V 34.99409 c 0,-0.01742 -0.0087,-0.04355 -0.02613,-0.05225 -0.01742,-0.01742 -0.03484,-0.02613 -0.05226,-0.02613 h -5.504192 c -0.243857,0 -0.444168,-0.200311 -0.444168,-0.444168 v -6.035459 c 0,-0.01742 -0.0087,-0.03484 -0.01742,-0.04355 l -0.0087,-0.0087 c -0.0087,-0.01742 -0.03484,-0.02613 -0.05226,-0.02613 z m 0.209021,-4.337169 c 2.856609,0 5.443234,1.15832 7.315707,3.030793 1.872473,1.872473 3.030793,4.459098 3.030793,7.315708 0,2.856609 -1.15832,5.443234 -3.030793,7.315707 -1.872473,1.872473 -4.459098,3.030793 -7.315707,3.030793 -2.85661,0 -5.443235,-1.15832 -7.315708,-3.030793 -1.872473,-1.872473 -3.030793,-4.459098 -3.030793,-7.315707 0,-2.85661 1.15832,-5.443235 3.030793,-7.315708 1.881182,-1.872473 4.459098,-3.030793 7.315708,-3.030793 z M 22.621659,102.82115 c 0.461586,1.02768 0,2.22955 -1.027683,2.69114 -1.027683,0.46158 -2.229549,0 -2.682426,-1.02769 -1.140902,-2.54307 -2.072784,-5.19937 -2.760809,-7.93405 -0.670606,-2.68243 -1.123483,-5.46066 -1.323794,-8.30856 -0.07838,-1.12348 0.766407,-2.09891 1.889891,-2.17729 1.123483,-0.0784 2.098911,0.7664 2.177294,1.88989 0.182892,2.60404 0.600933,5.14712 1.219284,7.60311 0.627061,2.52566 1.471851,4.95552 2.508243,7.26345 z m 10.78196,-50.826749 c -0.836081,0.748989 -2.125039,0.679316 -2.874028,-0.156765 -0.74899,-0.836081 -0.679316,-2.125039 0.156765,-2.874028 1.8986,-1.698289 4.128149,-3.440124 6.427371,-4.938103 2.055366,-1.341213 4.189114,-2.508242 6.218352,-3.292068 1.045101,-0.400622 2.229549,0.113219 2.630171,1.16703 0.400622,1.045101 -0.113219,2.229549 -1.16703,2.630171 -1.750544,0.679315 -3.631726,1.706998 -5.469362,2.908864 -2.11633,1.384759 -4.171695,2.995957 -5.922239,4.554899 z m 47.552099,-7.39409 c -1.027682,-0.461586 -1.480559,-1.672162 -1.018973,-2.691135 0.461586,-1.027683 1.672162,-1.48056 2.691135,-1.018974 3.196268,1.445723 6.192224,3.222395 8.961742,5.28647 2.778227,2.072784 5.338725,4.459098 7.629238,7.097978 0.731571,0.853499 0.644479,2.133748 -0.20902,2.874028 -0.853499,0.731571 -2.133748,0.644479 -2.874028,-0.20902 -2.072784,-2.395023 -4.424261,-4.572317 -6.993468,-6.488336 -2.525661,-1.907309 -5.277761,-3.535925 -8.186626,-4.851011 z M 106.51715,90.6283 c 0.14805,-1.11477 1.16703,-1.8986 2.2818,-1.75054 1.11477,0.14806 1.8986,1.16703 1.75054,2.2818 -0.30482,2.29923 -0.7664,4.52878 -1.37605,6.68865 -0.61835,2.21213 -1.39346,4.35459 -2.30793,6.40995 -0.45287,1.02769 -1.65474,1.49798 -2.69113,1.04511 -1.03639,-0.45288 -1.49798,-1.65475 -1.0451,-2.69114 0.84479,-1.8986 1.55023,-3.85816 2.11633,-5.86998 0.5748,-1.99441 1.00155,-4.04106 1.27154,-6.11385 z M 52.145765,76.223328 c -0.627061,0.02613 -1.097356,0.156766 -1.410887,0.365786 -0.182892,0.121928 -0.322239,0.278693 -0.409331,0.470295 -0.0958,0.209021 -0.139347,0.461587 -0.130638,0.748989 0.02613,0.8535 0.470296,1.968274 1.332504,3.248523 l 0.01742,0.01742 v 0 l 2.804354,4.459099 c 1.123484,1.78538 2.299223,3.61431 3.771073,4.94681 1.410887,1.28896 3.117885,2.15988 5.373562,2.15988 2.447278,0.009 4.241369,-0.89705 5.687092,-2.25568 1.506687,-1.41089 2.699844,-3.35303 3.875583,-5.28647 l 3.152722,-5.199377 c 0.592224,-1.341213 0.801244,-2.238259 0.670606,-2.769518 -0.07838,-0.313531 -0.426749,-0.470296 -1.018973,-0.496423 -0.121929,-0.0087 -0.252567,-0.0087 -0.383204,-0.0087 -0.139347,0.0087 -0.287403,0.01742 -0.444168,0.02613 -0.08709,0.0087 -0.165474,0 -0.243857,-0.01742 -0.278694,0.01742 -0.574806,-0.0087 -0.862208,-0.04355 l 1.079937,-4.33717 c -8.021151,1.262831 -14.021773,-4.694245 -22.50451,-1.193157 l 0.609642,5.190669 c -0.348367,0.02613 -0.670606,0.01742 -0.966718,-0.02613 z m 24.786314,-1.010264 c 0.775117,0.235148 1.280249,0.731571 1.48056,1.524106 0.226439,0.879627 -0.01742,2.133748 -0.766407,3.832037 v 0 c -0.01742,0.03484 -0.02613,0.06096 -0.04355,0.08709 l -3.196268,5.260343 c -1.227994,2.02924 -2.482115,4.05848 -4.154277,5.62613 -1.724416,1.6199 -3.858165,2.69113 -6.767029,2.68242 -2.717263,-0.009 -4.763919,-1.0451 -6.44479,-2.57791 -1.619907,-1.48056 -2.865319,-3.39658 -4.041058,-5.26905 l -2.804355,-4.459103 c -1.027682,-1.524105 -1.558942,-2.926283 -1.593779,-4.075894 -0.01742,-0.539969 0.07838,-1.027683 0.278694,-1.463141 0.20902,-0.452878 0.53126,-0.827372 0.966718,-1.123484 0.200311,-0.139347 0.42675,-0.252566 0.679316,-0.348367 -0.182893,-2.421151 -0.252566,-5.016485 -0.130637,-7.568274 0.06096,-0.600933 0.174183,-1.210575 0.348367,-1.811508 0.714152,-2.560498 2.516951,-3.727528 4.737791,-5.147123 1.227994,-0.783826 2.569207,-1.367341 3.971384,-1.767963 0.888336,-0.252566 -0.757698,-3.100467 0.165475,-3.196268 4.450389,-0.452877 11.652877,3.605599 14.762053,6.967341 1.558942,1.680871 2.53437,3.022084 2.74339,5.983204 z"
     class="st0" /></svg>